<svg style="overflow:visible;width:100%;height:auto" viewBox="-5 -5 950 240" xmlns:xlink="http://www.w3.org/1999/xlink" xmlns="http://www.w3.org/2000/svg"><g transform="translate(0, 0)"><g transform="translate(0, 0)" pointer-events="none"><text style="font-size:13.75px;font-family:monospace" x="5.875" y="18" text-anchor="middle">M</text><text style="font-size:13.75px;font-family:monospace" x="17.625" y="18" text-anchor="middle">Y</text><text style="font-size:13.75px;font-family:monospace" x="29.375" y="18" text-anchor="middle">R</text><text style="font-size:13.75px;font-family:monospace" x="41.125" y="18" text-anchor="middle">M</text><text style="font-size:13.75px;font-family:monospace" x="52.875" y="18" text-anchor="middle">Q</text><text style="font-size:13.75px;font-family:monospace" x="64.625" y="18" text-anchor="middle">L</text><text style="font-size:13.75px;font-family:monospace" x="76.375" y="18" text-anchor="middle">L</text><text style="font-size:13.75px;font-family:monospace" x="88.125" y="18" text-anchor="middle">S</text><text style="font-size:13.75px;font-family:monospace" x="99.875" y="18" text-anchor="middle">C</text><text style="font-size:13.75px;font-family:monospace" x="111.625" y="18" text-anchor="middle">I</text><text style="font-size:13.75px;font-family:monospace" x="123.375" y="18" text-anchor="middle">A</text><text style="font-size:13.75px;font-family:monospace" x="135.125" y="18" text-anchor="middle">L</text><text style="font-size:13.75px;font-family:monospace" x="146.875" y="18" text-anchor="middle">S</text><text style="font-size:13.75px;font-family:monospace" x="158.625" y="18" text-anchor="middle">L</text><text style="font-size:13.75px;font-family:monospace" x="170.375" y="18" text-anchor="middle">A</text><text style="font-size:13.75px;font-family:monospace" x="182.125" y="18" text-anchor="middle">L</text><text style="font-size:13.75px;font-family:monospace" x="193.875" y="18" text-anchor="middle">V</text><text style="font-size:13.75px;font-family:monospace" x="205.625" y="18" text-anchor="middle">T</text><text style="font-size:13.75px;font-family:monospace" x="217.375" y="18" text-anchor="middle">N</text><text style="font-size:13.75px;font-family:monospace" x="229.125" y="18" text-anchor="middle">S</text><text style="font-size:13.75px;font-family:monospace" x="240.875" y="18" text-anchor="middle">A</text><text style="font-size:13.75px;font-family:monospace" x="252.625" y="18" text-anchor="middle">P</text><text style="font-size:13.75px;font-family:monospace" x="264.375" y="18" text-anchor="middle">T</text><text style="font-size:13.75px;font-family:monospace" x="276.125" y="18" text-anchor="middle">S</text><text style="font-size:13.75px;font-family:monospace" x="287.875" y="18" text-anchor="middle">S</text><text style="font-size:13.75px;font-family:monospace" x="299.625" y="18" text-anchor="middle">S</text><text style="font-size:13.75px;font-family:monospace" x="311.375" y="18" text-anchor="middle">T</text><text style="font-size:13.75px;font-family:monospace" x="323.125" y="18" text-anchor="middle">K</text><text style="font-size:13.75px;font-family:monospace" x="334.875" y="18" text-anchor="middle">K</text><text style="font-size:13.75px;font-family:monospace" x="346.625" y="18" text-anchor="middle">T</text><text style="font-size:13.75px;font-family:monospace" x="358.375" y="18" text-anchor="middle">Q</text><text style="font-size:13.75px;font-family:monospace" x="370.125" y="18" text-anchor="middle">L</text><text style="font-size:13.75px;font-family:monospace" x="381.875" y="18" text-anchor="middle">Q</text><text style="font-size:13.75px;font-family:monospace" x="393.625" y="18" text-anchor="middle">L</text><text style="font-size:13.75px;font-family:monospace" x="405.375" y="18" text-anchor="middle">E</text><text style="font-size:13.75px;font-family:monospace" x="417.125" y="18" text-anchor="middle">H</text><text style="font-size:13.75px;font-family:monospace" x="428.875" y="18" text-anchor="middle">L</text><text style="font-size:13.75px;font-family:monospace" x="440.625" y="18" text-anchor="middle">L</text><text style="font-size:13.75px;font-family:monospace" x="452.375" y="18" text-anchor="middle">L</text><text style="font-size:13.75px;font-family:monospace" x="464.125" y="18" text-anchor="middle">D</text><text style="font-size:13.75px;font-family:monospace" x="475.875" y="18" text-anchor="middle">L</text><text style="font-size:13.75px;font-family:monospace" x="487.625" y="18" text-anchor="middle">Q</text><text style="font-size:13.75px;font-family:monospace" x="499.375" y="18" text-anchor="middle">M</text><text style="font-size:13.75px;font-family:monospace" x="511.125" y="18" text-anchor="middle">V</text><text style="font-size:13.75px;font-family:monospace" x="522.875" y="18" text-anchor="middle">I</text><text style="font-size:13.75px;font-family:monospace" x="534.625" y="18" text-anchor="middle">L</text><text style="font-size:13.75px;font-family:monospace" x="546.375" y="18" text-anchor="middle">N</text><text style="font-size:13.75px;font-family:monospace" x="558.125" y="18" text-anchor="middle">G</text><text style="font-size:13.75px;font-family:monospace" x="569.875" y="18" text-anchor="middle">I</text><text style="font-size:13.75px;font-family:monospace" x="581.625" y="18" text-anchor="middle">N</text><text style="font-size:13.75px;font-family:monospace" x="593.375" y="18" text-anchor="middle">N</text><text style="font-size:13.75px;font-family:monospace" x="605.125" y="18" text-anchor="middle">Y</text><text style="font-size:13.75px;font-family:monospace" x="616.875" y="18" text-anchor="middle">K</text><text style="font-size:13.75px;font-family:monospace" x="628.625" y="18" text-anchor="middle">N</text><text style="font-size:13.75px;font-family:monospace" x="640.375" y="18" text-anchor="middle">P</text><text style="font-size:13.75px;font-family:monospace" x="652.125" y="18" text-anchor="middle">K</text><text style="font-size:13.75px;font-family:monospace" x="663.875" y="18" text-anchor="middle">L</text><text style="font-size:13.75px;font-family:monospace" x="675.625" y="18" text-anchor="middle">T</text><text style="font-size:13.75px;font-family:monospace" x="687.375" y="18" text-anchor="middle">R</text><text style="font-size:13.75px;font-family:monospace" x="699.125" y="18" text-anchor="middle">M</text><text style="font-size:13.75px;font-family:monospace" x="710.875" y="18" text-anchor="middle">L</text><text style="font-size:13.75px;font-family:monospace" x="722.625" y="18" text-anchor="middle">T</text><text style="font-size:13.75px;font-family:monospace" x="734.375" y="18" text-anchor="middle">F</text><text style="font-size:13.75px;font-family:monospace" x="746.125" y="18" text-anchor="middle">K</text><text style="font-size:13.75px;font-family:monospace" x="757.875" y="18" text-anchor="middle">F</text><text style="font-size:13.75px;font-family:monospace" x="769.625" y="18" text-anchor="middle">Y</text><text style="font-size:13.75px;font-family:monospace" x="781.375" y="18" text-anchor="middle">M</text><text style="font-size:13.75px;font-family:monospace" x="793.125" y="18" text-anchor="middle">P</text><text style="font-size:13.75px;font-family:monospace" x="804.875" y="18" text-anchor="middle">K</text><text style="font-size:13.75px;font-family:monospace" x="816.625" y="18" text-anchor="middle">K</text><text style="font-size:13.75px;font-family:monospace" x="828.375" y="18" text-anchor="middle">A</text><text style="font-size:13.75px;font-family:monospace" x="840.125" y="18" text-anchor="middle">T</text><text style="font-size:13.75px;font-family:monospace" x="851.875" y="18" text-anchor="middle">E</text><text style="font-size:13.75px;font-family:monospace" x="863.625" y="18" text-anchor="middle">L</text><text style="font-size:13.75px;font-family:monospace" x="875.375" y="18" text-anchor="middle">K</text><text style="font-size:13.75px;font-family:monospace" x="887.125" y="18" text-anchor="middle">H</text><text style="font-size:13.75px;font-family:monospace" x="898.875" y="18" text-anchor="middle">L</text><text style="font-size:13.75px;font-family:monospace" x="910.625" y="18" text-anchor="middle">Q</text><text style="font-size:13.75px;font-family:monospace" x="922.375" y="18" text-anchor="middle">C</text><text style="font-size:13.75px;font-family:monospace" x="934.125" y="18" text-anchor="middle">L</text></g><g transform="translate(0, 23)" pointer-events="none"><defs><linearGradient id="rsaGradient51c9" x1="0" x2="0" y1="0" y2="18" gradientUnits="userSpaceOnUse"><stop offset="0%" stop-color="#990000"></stop><stop offset="75%" stop-color="#990000"></stop><stop offset="75%" stop-color="#3366cc"></stop><stop offset="100%" stop-color="#3366cc"></stop></linearGradient><clipPath id="clip51c9"><rect x="0" y="0" width="940" height="18"></rect></clipPath></defs><path d="M -5.875 4.682807445526123 C 0 4.682807445526123, 0 4.682807445526123, 5.875 4.682807445526123 C 11.75 4.682807445526123, 11.75 4.995650231838226 17.625 4.995650231838226 C 23.5 4.995650231838226, 23.5 5.958725273609161 29.375 5.958725273609161 C 35.25 5.958725273609161, 35.25 6.979625105857849 41.125 6.979625105857849 C 47 6.979625105857849, 47 5.710869133472443 52.875 5.710869133472443 C 58.75 5.710869133472443, 58.75 6.951006054878235 64.625 6.951006054878235 C 70.5 6.951006054878235, 70.5 6.95586371421814 76.375 6.95586371421814 C 82.25 6.95586371421814, 82.25 6.385551810264587 88.125 6.385551810264587 C 94 6.385551810264587, 94 6.856300950050354 99.875 6.856300950050354 C 105.75 6.856300950050354, 105.75 7.346698582172394 111.625 7.346698582172394 C 117.5 7.346698582172394, 117.5 6.754703521728516 123.375 6.754703521728516 C 129.25 6.754703521728516, 129.25 6.202864706516266 135.125 6.202864706516266 C 141 6.202864706516266, 141 5.898158550262451 146.875 5.898158550262451 C 152.75 5.898158550262451, 152.75 5.859673202037811 158.625 5.859673202037811 C 164.5 5.859673202037811, 164.5 5.8205079436302185 170.375 5.8205079436302185 C 176.25 5.8205079436302185, 176.25 5.220650851726532 182.125 5.220650851726532 C 188 5.220650851726532, 188 4.737268149852753 193.875 4.737268149852753 C 199.75 4.737268149852753, 199.75 5.033159792423248 205.625 5.033159792423248 C 211.5 5.033159792423248, 211.5 3.253047525882721 217.375 3.253047525882721 C 223.25 3.253047525882721, 223.25 4.405582427978516 229.125 4.405582427978516 C 235 4.405582427978516, 235 5.917001485824585 240.875 5.917001485824585 C 246.75 5.917001485824585, 246.75 5.852921724319458 252.625 5.852921724319458 C 258.5 5.852921724319458, 258.5 5.899930775165558 264.375 5.899930775165558 C 270.25 5.899930775165558, 270.25 4.937949061393738 276.125 4.937949061393738 C 282 4.937949061393738, 282 5.371004223823547 287.875 5.371004223823547 C 293.75 5.371004223823547, 293.75 7.2412861585617065 299.625 7.2412861585617065 C 305.5 7.2412861585617065, 305.5 8.372173368930817 311.375 8.372173368930817 C 317.25 8.372173368930817, 317.25 7.209088206291199 323.125 7.209088206291199 C 329 7.209088206291199, 329 8.019083142280579 334.875 8.019083142280579 C 340.75 8.019083142280579, 340.75 11.989605605602264 346.625 11.989605605602264 C 352.5 11.989605605602264, 352.5 11.616081595420837 358.375 11.616081595420837 C 364.25 11.616081595420837, 364.25 10.190934121608734 370.125 10.190934121608734 C 376 10.190934121608734, 376 9.887579679489136 381.875 9.887579679489136 C 387.75 9.887579679489136, 387.75 16.527080193161964 393.625 16.527080193161964 C 399.5 16.527080193161964, 399.5 11.700689882040024 405.375 11.700689882040024 C 411.25 11.700689882040024, 411.25 8.448044657707214 417.125 8.448044657707214 C 423 8.448044657707214, 423 15.817826718091965 428.875 15.817826718091965 C 434.75 15.817826718091965, 434.75 16.510375782847404 440.625 16.510375782847404 C 446.5 16.510375782847404, 446.5 10.619963020086288 452.375 10.619963020086288 C 458.25 10.619963020086288, 458.25 10.719809502363205 464.125 10.719809502363205 C 470 10.719809502363205, 470 16.87442734465003 475.875 16.87442734465003 C 481.75 16.87442734465003, 481.75 13.65357406437397 487.625 13.65357406437397 C 493.5 13.65357406437397, 493.5 9.775748640298843 499.375 9.775748640298843 C 505.25 9.775748640298843, 505.25 14.974848538637161 511.125 14.974848538637161 C 517 14.974848538637161, 517 16.769581977277994 522.875 16.769581977277994 C 528.75 16.769581977277994, 528.75 11.676120400428772 534.625 11.676120400428772 C 540.5 11.676120400428772, 540.5 8.449888825416565 546.375 8.449888825416565 C 552.25 8.449888825416565, 552.25 16.00353529304266 558.125 16.00353529304266 C 564 16.00353529304266, 564 14.967619553208351 569.875 14.967619553208351 C 575.75 14.967619553208351, 575.75 6.562971889972687 581.625 6.562971889972687 C 587.5 6.562971889972687, 587.5 9.950540274381638 593.375 9.950540274381638 C 599.25 9.950540274381638, 599.25 12.88808411359787 605.125 12.88808411359787 C 611 12.88808411359787, 611 6.904577612876892 616.875 6.904577612876892 C 622.75 6.904577612876892, 622.75 9.851707071065903 628.625 9.851707071065903 C 634.5 9.851707071065903, 634.5 9.244782865047455 640.375 9.244782865047455 C 646.25 9.244782865047455, 646.25 7.514373958110809 652.125 7.514373958110809 C 658 7.514373958110809, 658 13.791563659906387 663.875 13.791563659906387 C 669.75 13.791563659906387, 669.75 11.283142447471619 675.625 11.283142447471619 C 681.5 11.283142447471619, 681.5 8.719667255878448 687.375 8.719667255878448 C 693.25 8.719667255878448, 693.25 12.588401287794113 699.125 12.588401287794113 C 705 12.588401287794113, 705 12.903768658638 710.875 12.903768658638 C 716.75 12.903768658638, 716.75 10.850171387195587 722.625 10.850171387195587 C 728.5 10.850171387195587, 728.5 13.26135379076004 734.375 13.26135379076004 C 740.25 13.26135379076004, 740.25 9.059689730405807 746.125 9.059689730405807 C 752 9.059689730405807, 752 12.931908935308456 757.875 12.931908935308456 C 763.75 12.931908935308456, 763.75 11.793647080659866 769.625 11.793647080659866 C 775.5 11.793647080659866, 775.5 13.058837831020355 781.375 13.058837831020355 C 787.25 13.058837831020355, 787.25 12.704114705324173 793.125 12.704114705324173 C 799 12.704114705324173, 799 6.66940975189209 804.875 6.66940975189209 C 810.75 6.66940975189209, 810.75 7.445698976516724 816.625 7.445698976516724 C 822.5 7.445698976516724, 822.5 11.915371775627136 828.375 11.915371775627136 C 834.25 11.915371775627136, 834.25 8.398633122444153 840.125 8.398633122444153 C 846 8.398633122444153, 846 9.915337443351746 851.875 9.915337443351746 C 857.75 9.915337443351746, 857.75 12.74328300356865 863.625 12.74328300356865 C 869.5 12.74328300356865, 869.5 8.161838948726654 875.375 8.161838948726654 C 881.25 8.161838948726654, 881.25 12.003837615251541 887.125 12.003837615251541 C 893 12.003837615251541, 893 15.207936391234398 898.875 15.207936391234398 C 904.75 15.207936391234398, 904.75 8.002016484737396 910.625 8.002016484737396 C 916.5 8.002016484737396, 916.5 13.767513990402222 922.375 13.767513990402222 C 928.25 13.767513990402222, 928.25 16.9067294113338 934.125 16.9067294113338 C 940 16.9067294113338, 940 11.094966411590576 945.875 11.094966411590576 V 13.25 H -5.875" style="fill:url(#rsaGradient51c9)" clip-path="url(#clip51c9)"></path></g><g transform="translate(0, 46)" pointer-events="none"><defs><g id="icon-ss-Hb-ea96"><path d="M 7.05 0.5 H 2.35 Q 0 0.5, -7.05 17.5 H -2.35 Q 0 17.5, 7.05 0.5" fill="#ff6600"></path></g><g id="icon-ss-Hf-ea96"><path d="M -7.05 0.5 H -2.35 Q 0 0.5, 7.05 17.5 H 2.35 Q 0 17.5, -7.05 0.5" fill="#ff9900"></path></g><g id="icon-ss-Hef-ea96" style="fill:#ff9900"><path d="M 0 7.2 L 9.4 17.5 H 4.7 Q 2.35 17.5, 0 10.799999999999999"></path></g><g id="icon-ss-Heb-ea96"><path d="M 11.75 7.2 L 2.35 17.5 H 7.05 Q 9.4 17.5, 11.75 10.799999999999999" fill="#ff6600"></path></g><clipPath id="clipea96"><rect x="0" y="0" width="940" height="18"></rect></clipPath></defs><g clip-path="url(#clipea96)"><rect width="329" height="3.6" y="7.2" x="0" fill="#cc3399"></rect><use xlink:href="#icon-ss-Hb-ea96" transform="translate(340.75, 0)"></use><use xlink:href="#icon-ss-Hef-ea96" transform="translate(329, 0)"></use><use xlink:href="#icon-ss-Hb-ea96" transform="translate(364.25, 0)"></use><use xlink:href="#icon-ss-Hf-ea96" transform="translate(352.5, 0)"></use><use xlink:href="#icon-ss-Hb-ea96" transform="translate(387.75, 0)"></use><use xlink:href="#icon-ss-Hf-ea96" transform="translate(376, 0)"></use><use xlink:href="#icon-ss-Hb-ea96" transform="translate(411.25, 0)"></use><use xlink:href="#icon-ss-Hf-ea96" transform="translate(399.5, 0)"></use><use xlink:href="#icon-ss-Hb-ea96" transform="translate(434.75, 0)"></use><use xlink:href="#icon-ss-Hf-ea96" transform="translate(423, 0)"></use><use xlink:href="#icon-ss-Hb-ea96" transform="translate(458.25, 0)"></use><use xlink:href="#icon-ss-Hf-ea96" transform="translate(446.5, 0)"></use><use xlink:href="#icon-ss-Hb-ea96" transform="translate(481.75, 0)"></use><use xlink:href="#icon-ss-Hf-ea96" transform="translate(470, 0)"></use><use xlink:href="#icon-ss-Hb-ea96" transform="translate(505.25, 0)"></use><use xlink:href="#icon-ss-Hf-ea96" transform="translate(493.5, 0)"></use><use xlink:href="#icon-ss-Hb-ea96" transform="translate(528.75, 0)"></use><use xlink:href="#icon-ss-Hf-ea96" transform="translate(517, 0)"></use><use xlink:href="#icon-ss-Hb-ea96" transform="translate(552.25, 0)"></use><use xlink:href="#icon-ss-Hf-ea96" transform="translate(540.5, 0)"></use><use xlink:href="#icon-ss-Hb-ea96" transform="translate(575.75, 0)"></use><use xlink:href="#icon-ss-Hf-ea96" transform="translate(564, 0)"></use><use xlink:href="#icon-ss-Heb-ea96" transform="translate(587.5, 0)"></use><use xlink:href="#icon-ss-Hf-ea96" transform="translate(587.5, 0)"></use><rect width="235" height="3.6" y="7.2" x="599.25" fill="#cc3399"></rect><use xlink:href="#icon-ss-Hb-ea96" transform="translate(846, 0)"></use><use xlink:href="#icon-ss-Hef-ea96" transform="translate(834.25, 0)"></use><use xlink:href="#icon-ss-Hb-ea96" transform="translate(869.5, 0)"></use><use xlink:href="#icon-ss-Hf-ea96" transform="translate(857.75, 0)"></use><use xlink:href="#icon-ss-Hb-ea96" transform="translate(893, 0)"></use><use xlink:href="#icon-ss-Hf-ea96" transform="translate(881.25, 0)"></use><use xlink:href="#icon-ss-Hb-ea96" transform="translate(916.5, 0)"></use><use xlink:href="#icon-ss-Hf-ea96" transform="translate(904.75, 0)"></use><use xlink:href="#icon-ss-Hb-ea96" transform="translate(940, 0)"></use><use xlink:href="#icon-ss-Hf-ea96" transform="translate(928.25, 0)"></use></g></g><g transform="translate(0, 69)" pointer-events="none"><defs><clipPath id="clip082b"><rect x="0" y="0" width="940" height="18"></rect></clipPath></defs><path d="M -5.875 0.5128178596496582 C 0 0.5128178596496582, 0 0.5128178596496582, 5.875 0.5128178596496582 C 11.75 0.5128178596496582, 11.75 0.5273747444152832, 17.625 0.5273747444152832 C 23.5 0.5273747444152832, 23.5 0.5342822074890137, 29.375 0.5342822074890137 C 35.25 0.5342822074890137, 35.25 0.5285811424255371, 41.125 0.5285811424255371 C 47 0.5285811424255371, 47 0.5290951728820801, 52.875 0.5290951728820801 C 58.75 0.5290951728820801, 58.75 0.5250840187072754, 64.625 0.5250840187072754 C 70.5 0.5250840187072754, 70.5 0.5179042816162109, 76.375 0.5179042816162109 C 82.25 0.5179042816162109, 82.25 0.5182962417602539, 88.125 0.5182962417602539 C 94 0.5182962417602539, 94 0.5136103630065918, 99.875 0.5136103630065918 C 105.75 0.5136103630065918, 105.75 0.5220451354980469, 111.625 0.5220451354980469 C 117.5 0.5220451354980469, 117.5 0.517486572265625, 123.375 0.517486572265625 C 129.25 0.517486572265625, 129.25 0.5146708488464355, 135.125 0.5146708488464355 C 141 0.5146708488464355, 141 0.5089287757873535, 146.875 0.5089287757873535 C 152.75 0.5089287757873535, 152.75 0.5089802742004395, 158.625 0.5089802742004395 C 164.5 0.5089802742004395, 164.5 0.5123043060302734, 170.375 0.5123043060302734 C 176.25 0.5123043060302734, 176.25 0.5114011764526367, 182.125 0.5114011764526367 C 188 0.5114011764526367, 188 0.5152840614318848, 193.875 0.5152840614318848 C 199.75 0.5152840614318848, 199.75 0.5197691917419434, 205.625 0.5197691917419434 C 211.5 0.5197691917419434, 211.5 0.5252676010131836, 217.375 0.5252676010131836 C 223.25 0.5252676010131836, 223.25 0.5473294258117676, 229.125 0.5473294258117676 C 235 0.5473294258117676, 235 0.6656889915466309, 240.875 0.6656889915466309 C 246.75 0.6656889915466309, 246.75 0.7739944458007812, 252.625 0.7739944458007812 C 258.5 0.7739944458007812, 258.5 1.11185884475708, 264.375 1.11185884475708 C 270.25 1.11185884475708, 270.25 1.7053894996643066, 276.125 1.7053894996643066 C 282 1.7053894996643066, 282 2.776622772216797, 287.875 2.776622772216797 C 293.75 2.776622772216797, 293.75 4.147049903869629, 299.625 4.147049903869629 C 305.5 4.147049903869629, 305.5 5.361615180969238, 311.375 5.361615180969238 C 317.25 5.361615180969238, 317.25 6.4585747718811035, 323.125 6.4585747718811035 C 329 6.4585747718811035, 329 7.149131178855896, 334.875 7.149131178855896 C 340.75 7.149131178855896, 340.75 7.685335218906403, 346.625 7.685335218906403 C 352.5 7.685335218906403, 352.5 7.816810786724091, 358.375 7.816810786724091 C 364.25 7.816810786724091, 364.25 8.17434498667717, 370.125 8.17434498667717 C 376 8.17434498667717, 376 8.268379762768745, 381.875 8.268379762768745 C 387.75 8.268379762768745, 387.75 8.373900294303894, 393.625 8.373900294303894 C 399.5 8.373900294303894, 399.5 8.359122708439827, 405.375 8.359122708439827 C 411.25 8.359122708439827, 411.25 8.40462825447321, 417.125 8.40462825447321 C 423 8.40462825447321, 423 8.432698018848896, 428.875 8.432698018848896 C 434.75 8.432698018848896, 434.75 8.451021578162909, 440.625 8.451021578162909 C 446.5 8.451021578162909, 446.5 8.444760087877512, 452.375 8.444760087877512 C 458.25 8.444760087877512, 458.25 8.446912355720997, 464.125 8.446912355720997 C 470 8.446912355720997, 470 8.461065206676722, 475.875 8.461065206676722 C 481.75 8.461065206676722, 481.75 8.438877247273922, 487.625 8.438877247273922 C 493.5 8.438877247273922, 493.5 8.449344102293253, 499.375 8.449344102293253 C 505.25 8.449344102293253, 505.25 8.460789363831282, 511.125 8.460789363831282 C 517 8.460789363831282, 517 8.448923736810684, 522.875 8.448923736810684 C 528.75 8.448923736810684, 528.75 8.438339497894049, 534.625 8.438339497894049 C 540.5 8.438339497894049, 540.5 8.42151279002428, 546.375 8.42151279002428 C 552.25 8.42151279002428, 552.25 8.42126701772213, 558.125 8.42126701772213 C 564 8.42126701772213, 564 8.353503540158272, 569.875 8.353503540158272 C 575.75 8.353503540158272, 575.75 8.302827969193459, 581.625 8.302827969193459 C 587.5 8.302827969193459, 587.5 8.199622333049774, 593.375 8.199622333049774 C 599.25 8.199622333049774, 599.25 8.144119054079056, 605.125 8.144119054079056 C 611 8.144119054079056, 611 8.089249104261398, 616.875 8.089249104261398 C 622.75 8.089249104261398, 622.75 7.9702335596084595, 628.625 7.9702335596084595 C 634.5 7.9702335596084595, 634.5 7.905277848243713, 640.375 7.905277848243713 C 646.25 7.905277848243713, 646.25 7.9061296582221985, 652.125 7.9061296582221985 C 658 7.9061296582221985, 658 7.96965628862381, 663.875 7.96965628862381 C 669.75 7.96965628862381, 669.75 7.842967867851257, 675.625 7.842967867851257 C 681.5 7.842967867851257, 681.5 7.649963200092316, 687.375 7.649963200092316 C 693.25 7.649963200092316, 693.25 7.7396655678749084, 699.125 7.7396655678749084 C 705 7.7396655678749084, 705 7.853689193725586, 710.875 7.853689193725586 C 716.75 7.853689193725586, 716.75 7.768263161182404, 722.625 7.768263161182404 C 728.5 7.768263161182404, 728.5 7.90675562620163, 734.375 7.90675562620163 C 740.25 7.90675562620163, 740.25 7.899899542331696, 746.125 7.899899542331696 C 752 7.899899542331696, 752 8.065104216337204, 757.875 8.065104216337204 C 763.75 8.065104216337204, 763.75 8.045900225639343, 769.625 8.045900225639343 C 775.5 8.045900225639343, 775.5 8.03144121170044, 781.375 8.03144121170044 C 787.25 8.03144121170044, 787.25 8.074840515851974, 793.125 8.074840515851974 C 799 8.074840515851974, 799 7.898529529571533, 804.875 7.898529529571533 C 810.75 7.898529529571533, 810.75 7.8549381494522095, 816.625 7.8549381494522095 C 822.5 7.8549381494522095, 822.5 7.825099766254425, 828.375 7.825099766254425 C 834.25 7.825099766254425, 834.25 7.868269681930542, 840.125 7.868269681930542 C 846 7.868269681930542, 846 7.996756374835968, 851.875 7.996756374835968 C 857.75 7.996756374835968, 857.75 8.069431722164154, 863.625 8.069431722164154 C 869.5 8.069431722164154, 869.5 8.180144488811493, 875.375 8.180144488811493 C 881.25 8.180144488811493, 881.25 8.198169708251953, 887.125 8.198169708251953 C 893 8.198169708251953, 893 8.326588928699493, 898.875 8.326588928699493 C 904.75 8.326588928699493, 904.75 8.309297397732735, 910.625 8.309297397732735 C 916.5 8.309297397732735, 916.5 8.387086525559425, 922.375 8.387086525559425 C 928.25 8.387086525559425, 928.25 8.398337580263615, 934.125 8.398337580263615 C 940 8.398337580263615, 940 8.357415184378624, 945.875 8.357415184378624 V 9.642584815621376 C 940 9.642584815621376, 940 9.601662419736385, 934.125 9.601662419736385 C 928.25 9.601662419736385, 928.25 9.612913474440575, 922.375 9.612913474440575 C 916.5 9.612913474440575, 916.5 9.690702602267265, 910.625 9.690702602267265 C 904.75 9.690702602267265, 904.75 9.673411071300507, 898.875 9.673411071300507 C 893 9.673411071300507, 893 9.801830291748047, 887.125 9.801830291748047 C 881.25 9.801830291748047, 881.25 9.819855511188507, 875.375 9.819855511188507 C 869.5 9.819855511188507, 869.5 9.930568277835846, 863.625 9.930568277835846 C 857.75 9.930568277835846, 857.75 10.003243625164032, 851.875 10.003243625164032 C 846 10.003243625164032, 846 10.131730318069458, 840.125 10.131730318069458 C 834.25 10.131730318069458, 834.25 10.174900233745575, 828.375 10.174900233745575 C 822.5 10.174900233745575, 822.5 10.14506185054779, 816.625 10.14506185054779 C 810.75 10.14506185054779, 810.75 10.101470470428467, 804.875 10.101470470428467 C 799 10.101470470428467, 799 9.925159484148026, 793.125 9.925159484148026 C 787.25 9.925159484148026, 787.25 9.96855878829956, 781.375 9.96855878829956 C 775.5 9.96855878829956, 775.5 9.954099774360657, 769.625 9.954099774360657 C 763.75 9.954099774360657, 763.75 9.934895783662796, 757.875 9.934895783662796 C 752 9.934895783662796, 752 10.100100457668304, 746.125 10.100100457668304 C 740.25 10.100100457668304, 740.25 10.09324437379837, 734.375 10.09324437379837 C 728.5 10.09324437379837, 728.5 10.231736838817596, 722.625 10.231736838817596 C 716.75 10.231736838817596, 716.75 10.146310806274414, 710.875 10.146310806274414 C 705 10.146310806274414, 705 10.260334432125092, 699.125 10.260334432125092 C 693.25 10.260334432125092, 693.25 10.350036799907684, 687.375 10.350036799907684 C 681.5 10.350036799907684, 681.5 10.157032132148743, 675.625 10.157032132148743 C 669.75 10.157032132148743, 669.75 10.03034371137619, 663.875 10.03034371137619 C 658 10.03034371137619, 658 10.093870341777802, 652.125 10.093870341777802 C 646.25 10.093870341777802, 646.25 10.094722151756287, 640.375 10.094722151756287 C 634.5 10.094722151756287, 634.5 10.02976644039154, 628.625 10.02976644039154 C 622.75 10.02976644039154, 622.75 9.910750895738602, 616.875 9.910750895738602 C 611 9.910750895738602, 611 9.855880945920944, 605.125 9.855880945920944 C 599.25 9.855880945920944, 599.25 9.800377666950226, 593.375 9.800377666950226 C 587.5 9.800377666950226, 587.5 9.697172030806541, 581.625 9.697172030806541 C 575.75 9.697172030806541, 575.75 9.646496459841728, 569.875 9.646496459841728 C 564 9.646496459841728, 564 9.57873298227787, 558.125 9.57873298227787 C 552.25 9.57873298227787, 552.25 9.57848720997572, 546.375 9.57848720997572 C 540.5 9.57848720997572, 540.5 9.561660502105951, 534.625 9.561660502105951 C 528.75 9.561660502105951, 528.75 9.551076263189316, 522.875 9.551076263189316 C 517 9.551076263189316, 517 9.539210636168718, 511.125 9.539210636168718 C 505.25 9.539210636168718, 505.25 9.550655897706747, 499.375 9.550655897706747 C 493.5 9.550655897706747, 493.5 9.561122752726078, 487.625 9.561122752726078 C 481.75 9.561122752726078, 481.75 9.538934793323278, 475.875 9.538934793323278 C 470 9.538934793323278, 470 9.553087644279003, 464.125 9.553087644279003 C 458.25 9.553087644279003, 458.25 9.555239912122488, 452.375 9.555239912122488 C 446.5 9.555239912122488, 446.5 9.548978421837091, 440.625 9.548978421837091 C 434.75 9.548978421837091, 434.75 9.567301981151104, 428.875 9.567301981151104 C 423 9.567301981151104, 423 9.59537174552679, 417.125 9.59537174552679 C 411.25 9.59537174552679, 411.25 9.640877291560173, 405.375 9.640877291560173 C 399.5 9.640877291560173, 399.5 9.626099705696106, 393.625 9.626099705696106 C 387.75 9.626099705696106, 387.75 9.731620237231255, 381.875 9.731620237231255 C 376 9.731620237231255, 376 9.82565501332283, 370.125 9.82565501332283 C 364.25 9.82565501332283, 364.25 10.18318921327591, 358.375 10.18318921327591 C 352.5 10.18318921327591, 352.5 10.314664781093597, 346.625 10.314664781093597 C 340.75 10.314664781093597, 340.75 10.850868821144104, 334.875 10.850868821144104 C 329 10.850868821144104, 329 11.541425228118896, 323.125 11.541425228118896 C 317.25 11.541425228118896, 317.25 12.638384819030762, 311.375 12.638384819030762 C 305.5 12.638384819030762, 305.5 13.852950096130371, 299.625 13.852950096130371 C 293.75 13.852950096130371, 293.75 15.223377227783203, 287.875 15.223377227783203 C 282 15.223377227783203, 282 16.294610500335693, 276.125 16.294610500335693 C 270.25 16.294610500335693, 270.25 16.88814115524292, 264.375 16.88814115524292 C 258.5 16.88814115524292, 258.5 17.22600555419922, 252.625 17.22600555419922 C 246.75 17.22600555419922, 246.75 17.33431100845337, 240.875 17.33431100845337 C 235 17.33431100845337, 235 17.452670574188232, 229.125 17.452670574188232 C 223.25 17.452670574188232, 223.25 17.474732398986816, 217.375 17.474732398986816 C 211.5 17.474732398986816, 211.5 17.480230808258057, 205.625 17.480230808258057 C 199.75 17.480230808258057, 199.75 17.484715938568115, 193.875 17.484715938568115 C 188 17.484715938568115, 188 17.488598823547363, 182.125 17.488598823547363 C 176.25 17.488598823547363, 176.25 17.487695693969727, 170.375 17.487695693969727 C 164.5 17.487695693969727, 164.5 17.49101972579956, 158.625 17.49101972579956 C 152.75 17.49101972579956, 152.75 17.491071224212646, 146.875 17.491071224212646 C 141 17.491071224212646, 141 17.485329151153564, 135.125 17.485329151153564 C 129.25 17.485329151153564, 129.25 17.482513427734375, 123.375 17.482513427734375 C 117.5 17.482513427734375, 117.5 17.477954864501953, 111.625 17.477954864501953 C 105.75 17.477954864501953, 105.75 17.486389636993408, 99.875 17.486389636993408 C 94 17.486389636993408, 94 17.481703758239746, 88.125 17.481703758239746 C 82.25 17.481703758239746, 82.25 17.48209571838379, 76.375 17.48209571838379 C 70.5 17.48209571838379, 70.5 17.474915981292725, 64.625 17.474915981292725 C 58.75 17.474915981292725, 58.75 17.47090482711792, 52.875 17.47090482711792 C 47 17.47090482711792, 47 17.471418857574463, 41.125 17.471418857574463 C 35.25 17.471418857574463, 35.25 17.465717792510986, 29.375 17.465717792510986 C 23.5 17.465717792510986, 23.5 17.472625255584717, 17.625 17.472625255584717 C 11.75 17.472625255584717, 11.75 17.487182140350342, 5.875 17.487182140350342 C 0 17.487182140350342, 0 17.487182140350342, -5.875 17.487182140350342 " style="fill:#666" clip-path="url(#clip082b)"></path></g><g transform="translate(0, 92)" pointer-events="none"><path d="M 5.875 6.5 H 940" style="fill:none;stroke:#000;stroke-width:1px"></path><circle cx="5.875" cy="6.5" fill="black" r="1.9583333333333333"></circle><text style="font-size:8.8125px" x="52.875" y="18" text-anchor="middle">5</text><path d="M 52.875 2 v 4.5" style="fill:none;stroke:#000;stroke-width:1px"></path><text style="font-size:8.8125px" x="111.625" y="18" text-anchor="middle">10</text><path d="M 111.625 2 v 4.5" style="fill:none;stroke:#000;stroke-width:1px"></path><text style="font-size:8.8125px" x="170.375" y="18" text-anchor="middle">15</text><path d="M 170.375 2 v 4.5" style="fill:none;stroke:#000;stroke-width:1px"></path><text style="font-size:8.8125px" x="229.125" y="18" text-anchor="middle">20</text><path d="M 229.125 2 v 4.5" style="fill:none;stroke:#000;stroke-width:1px"></path><text style="font-size:8.8125px" x="287.875" y="18" text-anchor="middle">25</text><path d="M 287.875 2 v 4.5" style="fill:none;stroke:#000;stroke-width:1px"></path><text style="font-size:8.8125px" x="346.625" y="18" text-anchor="middle">30</text><path d="M 346.625 2 v 4.5" style="fill:none;stroke:#000;stroke-width:1px"></path><text style="font-size:8.8125px" x="405.375" y="18" text-anchor="middle">35</text><path d="M 405.375 2 v 4.5" style="fill:none;stroke:#000;stroke-width:1px"></path><text style="font-size:8.8125px" x="464.125" y="18" text-anchor="middle">40</text><path d="M 464.125 2 v 4.5" style="fill:none;stroke:#000;stroke-width:1px"></path><text style="font-size:8.8125px" x="522.875" y="18" text-anchor="middle">45</text><path d="M 522.875 2 v 4.5" style="fill:none;stroke:#000;stroke-width:1px"></path><text style="font-size:8.8125px" x="581.625" y="18" text-anchor="middle">50</text><path d="M 581.625 2 v 4.5" style="fill:none;stroke:#000;stroke-width:1px"></path><text style="font-size:8.8125px" x="640.375" y="18" text-anchor="middle">55</text><path d="M 640.375 2 v 4.5" style="fill:none;stroke:#000;stroke-width:1px"></path><text style="font-size:8.8125px" x="699.125" y="18" text-anchor="middle">60</text><path d="M 699.125 2 v 4.5" style="fill:none;stroke:#000;stroke-width:1px"></path><text style="font-size:8.8125px" x="757.875" y="18" text-anchor="middle">65</text><path d="M 757.875 2 v 4.5" style="fill:none;stroke:#000;stroke-width:1px"></path><text style="font-size:8.8125px" x="816.625" y="18" text-anchor="middle">70</text><path d="M 816.625 2 v 4.5" style="fill:none;stroke:#000;stroke-width:1px"></path><text style="font-size:8.8125px" x="875.375" y="18" text-anchor="middle">75</text><path d="M 875.375 2 v 4.5" style="fill:none;stroke:#000;stroke-width:1px"></path><text style="font-size:8.8125px" x="934.125" y="18" text-anchor="middle">80</text><path d="M 934.125 2 v 4.5" style="fill:none;stroke:#000;stroke-width:1px"></path></g></g><g transform="translate(0, 115)"><g transform="translate(0, 0)" pointer-events="none"><text style="font-size:13.75px;font-family:monospace" x="5.875" y="18" text-anchor="middle">E</text><text style="font-size:13.75px;font-family:monospace" x="17.625" y="18" text-anchor="middle">E</text><text style="font-size:13.75px;font-family:monospace" x="29.375" y="18" text-anchor="middle">E</text><text style="font-size:13.75px;font-family:monospace" x="41.125" y="18" text-anchor="middle">L</text><text style="font-size:13.75px;font-family:monospace" x="52.875" y="18" text-anchor="middle">K</text><text style="font-size:13.75px;font-family:monospace" x="64.625" y="18" text-anchor="middle">P</text><text style="font-size:13.75px;font-family:monospace" x="76.375" y="18" text-anchor="middle">L</text><text style="font-size:13.75px;font-family:monospace" x="88.125" y="18" text-anchor="middle">E</text><text style="font-size:13.75px;font-family:monospace" x="99.875" y="18" text-anchor="middle">E</text><text style="font-size:13.75px;font-family:monospace" x="111.625" y="18" text-anchor="middle">V</text><text style="font-size:13.75px;font-family:monospace" x="123.375" y="18" text-anchor="middle">L</text><text style="font-size:13.75px;font-family:monospace" x="135.125" y="18" text-anchor="middle">N</text><text style="font-size:13.75px;font-family:monospace" x="146.875" y="18" text-anchor="middle">L</text><text style="font-size:13.75px;font-family:monospace" x="158.625" y="18" text-anchor="middle">A</text><text style="font-size:13.75px;font-family:monospace" x="170.375" y="18" text-anchor="middle">Q</text><text style="font-size:13.75px;font-family:monospace" x="182.125" y="18" text-anchor="middle">S</text><text style="font-size:13.75px;font-family:monospace" x="193.875" y="18" text-anchor="middle">K</text><text style="font-size:13.75px;font-family:monospace" x="205.625" y="18" text-anchor="middle">N</text><text style="font-size:13.75px;font-family:monospace" x="217.375" y="18" text-anchor="middle">F</text><text style="font-size:13.75px;font-family:monospace" x="229.125" y="18" text-anchor="middle">H</text><text style="font-size:13.75px;font-family:monospace" x="240.875" y="18" text-anchor="middle">L</text><text style="font-size:13.75px;font-family:monospace" x="252.625" y="18" text-anchor="middle">R</text><text style="font-size:13.75px;font-family:monospace" x="264.375" y="18" text-anchor="middle">P</text><text style="font-size:13.75px;font-family:monospace" x="276.125" y="18" text-anchor="middle">R</text><text style="font-size:13.75px;font-family:monospace" x="287.875" y="18" text-anchor="middle">D</text><text style="font-size:13.75px;font-family:monospace" x="299.625" y="18" text-anchor="middle">L</text><text style="font-size:13.75px;font-family:monospace" x="311.375" y="18" text-anchor="middle">I</text><text style="font-size:13.75px;font-family:monospace" x="323.125" y="18" text-anchor="middle">S</text><text style="font-size:13.75px;font-family:monospace" x="334.875" y="18" text-anchor="middle">N</text><text style="font-size:13.75px;font-family:monospace" x="346.625" y="18" text-anchor="middle">I</text><text style="font-size:13.75px;font-family:monospace" x="358.375" y="18" text-anchor="middle">N</text><text style="font-size:13.75px;font-family:monospace" x="370.125" y="18" text-anchor="middle">V</text><text style="font-size:13.75px;font-family:monospace" x="381.875" y="18" text-anchor="middle">I</text><text style="font-size:13.75px;font-family:monospace" x="393.625" y="18" text-anchor="middle">V</text><text style="font-size:13.75px;font-family:monospace" x="405.375" y="18" text-anchor="middle">L</text><text style="font-size:13.75px;font-family:monospace" x="417.125" y="18" text-anchor="middle">E</text><text style="font-size:13.75px;font-family:monospace" x="428.875" y="18" text-anchor="middle">L</text><text style="font-size:13.75px;font-family:monospace" x="440.625" y="18" text-anchor="middle">K</text><text style="font-size:13.75px;font-family:monospace" x="452.375" y="18" text-anchor="middle">G</text><text style="font-size:13.75px;font-family:monospace" x="464.125" y="18" text-anchor="middle">S</text><text style="font-size:13.75px;font-family:monospace" x="475.875" y="18" text-anchor="middle">E</text><text style="font-size:13.75px;font-family:monospace" x="487.625" y="18" text-anchor="middle">T</text><text style="font-size:13.75px;font-family:monospace" x="499.375" y="18" text-anchor="middle">T</text><text style="font-size:13.75px;font-family:monospace" x="511.125" y="18" text-anchor="middle">F</text><text style="font-size:13.75px;font-family:monospace" x="522.875" y="18" text-anchor="middle">M</text><text style="font-size:13.75px;font-family:monospace" x="534.625" y="18" text-anchor="middle">C</text><text style="font-size:13.75px;font-family:monospace" x="546.375" y="18" text-anchor="middle">E</text><text style="font-size:13.75px;font-family:monospace" x="558.125" y="18" text-anchor="middle">Y</text><text style="font-size:13.75px;font-family:monospace" x="569.875" y="18" text-anchor="middle">A</text><text style="font-size:13.75px;font-family:monospace" x="581.625" y="18" text-anchor="middle">D</text><text style="font-size:13.75px;font-family:monospace" x="593.375" y="18" text-anchor="middle">E</text><text style="font-size:13.75px;font-family:monospace" x="605.125" y="18" text-anchor="middle">K</text><text style="font-size:13.75px;font-family:monospace" x="616.875" y="18" text-anchor="middle">T</text><text style="font-size:13.75px;font-family:monospace" x="628.625" y="18" text-anchor="middle">A</text><text style="font-size:13.75px;font-family:monospace" x="640.375" y="18" text-anchor="middle">T</text><text style="font-size:13.75px;font-family:monospace" x="652.125" y="18" text-anchor="middle">I</text><text style="font-size:13.75px;font-family:monospace" x="663.875" y="18" text-anchor="middle">V</text><text style="font-size:13.75px;font-family:monospace" x="675.625" y="18" text-anchor="middle">E</text><text style="font-size:13.75px;font-family:monospace" x="687.375" y="18" text-anchor="middle">F</text><text style="font-size:13.75px;font-family:monospace" x="699.125" y="18" text-anchor="middle">L</text><text style="font-size:13.75px;font-family:monospace" x="710.875" y="18" text-anchor="middle">N</text><text style="font-size:13.75px;font-family:monospace" x="722.625" y="18" text-anchor="middle">R</text><text style="font-size:13.75px;font-family:monospace" x="734.375" y="18" text-anchor="middle">W</text><text style="font-size:13.75px;font-family:monospace" x="746.125" y="18" text-anchor="middle">I</text><text style="font-size:13.75px;font-family:monospace" x="757.875" y="18" text-anchor="middle">T</text><text style="font-size:13.75px;font-family:monospace" x="769.625" y="18" text-anchor="middle">F</text><text style="font-size:13.75px;font-family:monospace" x="781.375" y="18" text-anchor="middle">C</text><text style="font-size:13.75px;font-family:monospace" x="793.125" y="18" text-anchor="middle">Q</text><text style="font-size:13.75px;font-family:monospace" x="804.875" y="18" text-anchor="middle">S</text><text style="font-size:13.75px;font-family:monospace" x="816.625" y="18" text-anchor="middle">I</text><text style="font-size:13.75px;font-family:monospace" x="828.375" y="18" text-anchor="middle">I</text><text style="font-size:13.75px;font-family:monospace" x="840.125" y="18" text-anchor="middle">S</text><text style="font-size:13.75px;font-family:monospace" x="851.875" y="18" text-anchor="middle">T</text><text style="font-size:13.75px;font-family:monospace" x="863.625" y="18" text-anchor="middle">L</text><text style="font-size:13.75px;font-family:monospace" x="875.375" y="18" text-anchor="middle">T</text><text style="font-size:13.75px;font-family:monospace" x="887.125" y="18" text-anchor="middle"></text></g><g transform="translate(0, 23)" pointer-events="none"><defs><linearGradient id="rsaGradiente7fa" x1="0" x2="0" y1="0" y2="18" gradientUnits="userSpaceOnUse"><stop offset="0%" stop-color="#990000"></stop><stop offset="75%" stop-color="#990000"></stop><stop offset="75%" stop-color="#3366cc"></stop><stop offset="100%" stop-color="#3366cc"></stop></linearGradient><clipPath id="clipe7fa"><rect x="0" y="0" width="881.25" height="18"></rect></clipPath></defs><path d="M -5.875 16.9067294113338 C 0 16.9067294113338, 0 11.094966411590576, 5.875 11.094966411590576 C 11.75 11.094966411590576, 11.75 6.680362284183502 17.625 6.680362284183502 C 23.5 6.680362284183502, 23.5 13.770969778299332 29.375 13.770969778299332 C 35.25 13.770969778299332, 35.25 16.835639405995607 41.125 16.835639405995607 C 47 16.835639405995607, 47 8.956418871879578 52.875 8.956418871879578 C 58.75 8.956418871879578, 58.75 12.36911404132843 64.625 12.36911404132843 C 70.5 12.36911404132843, 70.5 17.072195015847683 76.375 17.072195015847683 C 82.25 17.072195015847683, 82.25 11.792399734258652 88.125 11.792399734258652 C 94 11.792399734258652, 94 7.782728731632233 99.875 7.782728731632233 C 105.75 7.782728731632233, 105.75 16.013418056070805 111.625 16.013418056070805 C 117.5 16.013418056070805, 117.5 16.601339798420668 123.375 16.601339798420668 C 129.25 16.601339798420668, 129.25 7.914937317371368 135.125 7.914937317371368 C 141 7.914937317371368, 141 10.852587044239044 146.875 10.852587044239044 C 152.75 10.852587044239044, 152.75 16.293920397758484 158.625 16.293920397758484 C 164.5 16.293920397758484, 164.5 8.851814031600952 170.375 8.851814031600952 C 176.25 8.851814031600952, 176.25 5.705037713050842 182.125 5.705037713050842 C 188 5.705037713050842, 188 8.570749700069427 193.875 8.570749700069427 C 199.75 8.570749700069427, 199.75 5.510163903236389 205.625 5.510163903236389 C 211.5 5.510163903236389, 211.5 13.235930114984512 217.375 13.235930114984512 C 223.25 13.235930114984512, 223.25 6.4850172996521 229.125 6.4850172996521 C 235 6.4850172996521, 235 13.583808287978172 240.875 13.583808287978172 C 246.75 13.583808287978172, 246.75 9.835110068321228 252.625 9.835110068321228 C 258.5 9.835110068321228, 258.5 13.8727295845747 264.375 13.8727295845747 C 270.25 13.8727295845747, 270.25 7.881583213806152 276.125 7.881583213806152 C 282 7.881583213806152, 282 9.965508937835693 287.875 9.965508937835693 C 293.75 9.965508937835693, 293.75 16.484140280634165 299.625 16.484140280634165 C 305.5 16.484140280634165, 305.5 14.749793961644173 311.375 14.749793961644173 C 317.25 14.749793961644173, 317.25 9.908962398767471 323.125 9.908962398767471 C 329 9.908962398767471, 329 12.98067906498909 334.875 12.98067906498909 C 340.75 12.98067906498909, 340.75 16.791821867227554 346.625 16.791821867227554 C 352.5 16.791821867227554, 352.5 9.708681732416153 358.375 9.708681732416153 C 364.25 9.708681732416153, 364.25 10.62480142712593 370.125 10.62480142712593 C 376 10.62480142712593, 376 16.730209060013294 381.875 16.730209060013294 C 387.75 16.730209060013294, 387.75 15.568257883191109 393.625 15.568257883191109 C 399.5 15.568257883191109, 399.5 8.15833604335785 405.375 8.15833604335785 C 411.25 8.15833604335785, 411.25 10.477315127849579 417.125 10.477315127849579 C 423 10.477315127849579, 423 16.21139883249998 428.875 16.21139883249998 C 434.75 16.21139883249998, 434.75 8.190621137619019 440.625 8.190621137619019 C 446.5 8.190621137619019, 446.5 6.987227737903595 452.375 6.987227737903595 C 458.25 6.987227737903595, 458.25 10.682261943817139 464.125 10.682261943817139 C 470 10.682261943817139, 470 7.747652053833008 475.875 7.747652053833008 C 481.75 7.747652053833008, 481.75 7.90436577796936 487.625 7.90436577796936 C 493.5 7.90436577796936, 493.5 9.024484872817993 499.375 9.024484872817993 C 505.25 9.024484872817993, 505.25 14.18588800728321 511.125 14.18588800728321 C 517 14.18588800728321, 517 10.425293385982513 522.875 10.425293385982513 C 528.75 10.425293385982513, 528.75 13.947124272584915 534.625 13.947124272584915 C 540.5 13.947124272584915, 540.5 6.437238156795502 546.375 6.437238156795502 C 552.25 6.437238156795502, 552.25 10.630735695362091 558.125 10.630735695362091 C 564 10.630735695362091, 564 11.954869389533997 569.875 11.954869389533997 C 575.75 11.954869389533997, 575.75 9.156724363565445 581.625 9.156724363565445 C 587.5 9.156724363565445, 587.5 6.84492689371109 593.375 6.84492689371109 C 599.25 6.84492689371109, 599.25 11.4362271130085 605.125 11.4362271130085 C 611 11.4362271130085, 611 15.511647380888462 616.875 15.511647380888462 C 622.75 15.511647380888462, 622.75 12.46535325050354 628.625 12.46535325050354 C 634.5 12.46535325050354, 634.5 12.55945748090744 640.375 12.55945748090744 C 646.25 12.55945748090744, 646.25 16.920073218643665 652.125 16.920073218643665 C 658 16.920073218643665, 658 15.734346590936184 663.875 15.734346590936184 C 669.75 15.734346590936184, 669.75 8.762049674987793 675.625 8.762049674987793 C 681.5 8.762049674987793, 681.5 15.72007379680872 687.375 15.72007379680872 C 693.25 15.72007379680872, 693.25 17.04828866198659 699.125 17.04828866198659 C 705 17.04828866198659, 705 10.788952112197876 710.875 10.788952112197876 C 716.75 10.788952112197876, 716.75 10.339002549648285 722.625 10.339002549648285 C 728.5 10.339002549648285, 728.5 16.49446875974536 734.375 16.49446875974536 C 740.25 16.49446875974536, 740.25 16.15720386058092 746.125 16.15720386058092 C 752 16.15720386058092, 752 9.01910588145256 757.875 9.01910588145256 C 763.75 9.01910588145256, 763.75 13.92942963540554 769.625 13.92942963540554 C 775.5 13.92942963540554, 775.5 16.974002806469798 781.375 16.974002806469798 C 787.25 16.974002806469798, 787.25 10.399566233158112 793.125 10.399566233158112 C 799 10.399566233158112, 799 8.813310444355011 804.875 8.813310444355011 C 810.75 8.813310444355011, 810.75 15.129559770226479 816.625 15.129559770226479 C 822.5 15.129559770226479, 822.5 14.726357072591782 828.375 14.726357072591782 C 834.25 14.726357072591782, 834.25 6.701265215873718 840.125 6.701265215873718 C 846 6.701265215873718, 846 7.371723532676697 851.875 7.371723532676697 C 857.75 7.371723532676697, 857.75 11.12517124414444 863.625 11.12517124414444 C 869.5 11.12517124414444, 869.5 7.108358144760132 875.375 7.108358144760132 C 881.25 7.108358144760132, 881.25 7.108358144760132 887.125 7.108358144760132 V 13.25 H -5.875" style="fill:url(#rsaGradiente7fa)" clip-path="url(#clipe7fa)"></path></g><g transform="translate(0, 46)" pointer-events="none"><defs><g id="icon-ss-Hb-4860"><path d="M 7.05 0.5 H 2.35 Q 0 0.5, -7.05 17.5 H -2.35 Q 0 17.5, 7.05 0.5" fill="#ff6600"></path></g><g id="icon-ss-Hf-4860"><path d="M -7.05 0.5 H -2.35 Q 0 0.5, 7.05 17.5 H 2.35 Q 0 17.5, -7.05 0.5" fill="#ff9900"></path></g><g id="icon-ss-Hef-4860" style="fill:#ff9900"><path d="M 0 7.2 L 9.4 17.5 H 4.7 Q 2.35 17.5, 0 10.799999999999999"></path></g><g id="icon-ss-Heb-4860"><path d="M 11.75 7.2 L 2.35 17.5 H 7.05 Q 9.4 17.5, 11.75 10.799999999999999" fill="#ff6600"></path></g><clipPath id="clip4860"><rect x="0" y="0" width="881.25" height="18"></rect></clipPath></defs><g clip-path="url(#clip4860)"><rect width="0" height="3.6" y="7.2" x="0" fill="#cc3399"></rect><use xlink:href="#icon-ss-Hb-4860" transform="translate(0, 0)"></use><use xlink:href="#icon-ss-Hb-4860" transform="translate(23.5, 0)"></use><use xlink:href="#icon-ss-Hf-4860" transform="translate(11.75, 0)"></use><use xlink:href="#icon-ss-Hb-4860" transform="translate(47, 0)"></use><use xlink:href="#icon-ss-Hf-4860" transform="translate(35.25, 0)"></use><use xlink:href="#icon-ss-Hb-4860" transform="translate(70.5, 0)"></use><use xlink:href="#icon-ss-Hf-4860" transform="translate(58.75, 0)"></use><use xlink:href="#icon-ss-Hb-4860" transform="translate(94, 0)"></use><use xlink:href="#icon-ss-Hf-4860" transform="translate(82.25, 0)"></use><use xlink:href="#icon-ss-Hb-4860" transform="translate(117.5, 0)"></use><use xlink:href="#icon-ss-Hf-4860" transform="translate(105.75, 0)"></use><use xlink:href="#icon-ss-Hb-4860" transform="translate(141, 0)"></use><use xlink:href="#icon-ss-Hf-4860" transform="translate(129.25, 0)"></use><use xlink:href="#icon-ss-Hb-4860" transform="translate(164.5, 0)"></use><use xlink:href="#icon-ss-Hf-4860" transform="translate(152.75, 0)"></use><use xlink:href="#icon-ss-Heb-4860" transform="translate(176.25, 0)"></use><use xlink:href="#icon-ss-Hf-4860" transform="translate(176.25, 0)"></use><rect width="70.5" height="3.6" y="7.2" x="188" fill="#cc3399"></rect><use xlink:href="#icon-ss-Hb-4860" transform="translate(270.25, 0)"></use><use xlink:href="#icon-ss-Hef-4860" transform="translate(258.5, 0)"></use><use xlink:href="#icon-ss-Hb-4860" transform="translate(293.75, 0)"></use><use xlink:href="#icon-ss-Hf-4860" transform="translate(282, 0)"></use><use xlink:href="#icon-ss-Hb-4860" transform="translate(317.25, 0)"></use><use xlink:href="#icon-ss-Hf-4860" transform="translate(305.5, 0)"></use><use xlink:href="#icon-ss-Hb-4860" transform="translate(340.75, 0)"></use><use xlink:href="#icon-ss-Hf-4860" transform="translate(329, 0)"></use><use xlink:href="#icon-ss-Hb-4860" transform="translate(364.25, 0)"></use><use xlink:href="#icon-ss-Hf-4860" transform="translate(352.5, 0)"></use><use xlink:href="#icon-ss-Hb-4860" transform="translate(387.75, 0)"></use><use xlink:href="#icon-ss-Hf-4860" transform="translate(376, 0)"></use><use xlink:href="#icon-ss-Hb-4860" transform="translate(411.25, 0)"></use><use xlink:href="#icon-ss-Hf-4860" transform="translate(399.5, 0)"></use><use xlink:href="#icon-ss-Heb-4860" transform="translate(423, 0)"></use><use xlink:href="#icon-ss-Hf-4860" transform="translate(423, 0)"></use><rect width="152.75" height="3.6" y="7.2" x="434.75" fill="#cc3399"></rect><use xlink:href="#icon-ss-Hb-4860" transform="translate(599.25, 0)"></use><use xlink:href="#icon-ss-Hef-4860" transform="translate(587.5, 0)"></use><use xlink:href="#icon-ss-Hb-4860" transform="translate(622.75, 0)"></use><use xlink:href="#icon-ss-Hf-4860" transform="translate(611, 0)"></use><use xlink:href="#icon-ss-Hb-4860" transform="translate(646.25, 0)"></use><use xlink:href="#icon-ss-Hf-4860" transform="translate(634.5, 0)"></use><use xlink:href="#icon-ss-Hb-4860" transform="translate(669.75, 0)"></use><use xlink:href="#icon-ss-Hf-4860" transform="translate(658, 0)"></use><use xlink:href="#icon-ss-Hb-4860" transform="translate(693.25, 0)"></use><use xlink:href="#icon-ss-Hf-4860" transform="translate(681.5, 0)"></use><use xlink:href="#icon-ss-Hb-4860" transform="translate(716.75, 0)"></use><use xlink:href="#icon-ss-Hf-4860" transform="translate(705, 0)"></use><use xlink:href="#icon-ss-Hb-4860" transform="translate(740.25, 0)"></use><use xlink:href="#icon-ss-Hf-4860" transform="translate(728.5, 0)"></use><use xlink:href="#icon-ss-Hb-4860" transform="translate(763.75, 0)"></use><use xlink:href="#icon-ss-Hf-4860" transform="translate(752, 0)"></use><use xlink:href="#icon-ss-Hb-4860" transform="translate(787.25, 0)"></use><use xlink:href="#icon-ss-Hf-4860" transform="translate(775.5, 0)"></use><use xlink:href="#icon-ss-Hb-4860" transform="translate(810.75, 0)"></use><use xlink:href="#icon-ss-Hf-4860" transform="translate(799, 0)"></use><use xlink:href="#icon-ss-Heb-4860" transform="translate(822.5, 0)"></use><use xlink:href="#icon-ss-Hf-4860" transform="translate(822.5, 0)"></use><rect width="47" height="3.6" y="7.2" x="834.25" fill="#cc3399"></rect></g></g><g transform="translate(0, 69)" pointer-events="none"><defs><clipPath id="clipfe90"><rect x="0" y="0" width="881.25" height="18"></rect></clipPath></defs><path d="M -5.875 8.398337580263615 C 0 8.398337580263615, 0 8.357415184378624, 5.875 8.357415184378624 C 11.75 8.357415184378624, 11.75 8.372815027832985, 17.625 8.372815027832985 C 23.5 8.372815027832985, 23.5 8.391964703798294, 29.375 8.391964703798294 C 35.25 8.391964703798294, 35.25 8.445454880595207, 41.125 8.445454880595207 C 47 8.445454880595207, 47 8.443193435668945, 52.875 8.443193435668945 C 58.75 8.443193435668945, 58.75 8.442499045282602, 64.625 8.442499045282602 C 70.5 8.442499045282602, 70.5 8.456503957509995, 76.375 8.456503957509995 C 82.25 8.456503957509995, 82.25 8.44482435286045, 88.125 8.44482435286045 C 94 8.44482435286045, 94 8.448883794248104, 99.875 8.448883794248104 C 105.75 8.448883794248104, 105.75 8.446729809045792, 111.625 8.446729809045792 C 117.5 8.446729809045792, 117.5 8.447213556617498, 123.375 8.447213556617498 C 129.25 8.447213556617498, 129.25 8.3967764377594, 135.125 8.3967764377594 C 141 8.3967764377594, 141 8.349833324551582, 146.875 8.349833324551582 C 152.75 8.349833324551582, 152.75 8.306102603673935, 158.625 8.306102603673935 C 164.5 8.306102603673935, 164.5 8.129109770059586, 170.375 8.129109770059586 C 176.25 8.129109770059586, 176.25 8.05829507112503, 182.125 8.05829507112503 C 188 8.05829507112503, 188 7.950310170650482, 193.875 7.950310170650482 C 199.75 7.950310170650482, 199.75 7.802152574062347, 205.625 7.802152574062347 C 211.5 7.802152574062347, 211.5 7.995939254760742, 217.375 7.995939254760742 C 223.25 7.995939254760742, 223.25 7.941453039646149, 229.125 7.941453039646149 C 235 7.941453039646149, 235 8.18893375992775, 240.875 8.18893375992775 C 246.75 8.18893375992775, 246.75 8.100767582654953, 252.625 8.100767582654953 C 258.5 8.100767582654953, 258.5 8.213703036308289, 264.375 8.213703036308289 C 270.25 8.213703036308289, 270.25 8.167958796024323, 276.125 8.167958796024323 C 282 8.167958796024323, 282 8.275041833519936, 287.875 8.275041833519936 C 293.75 8.275041833519936, 293.75 8.317036494612694, 299.625 8.317036494612694 C 305.5 8.317036494612694, 305.5 8.30103224515915, 311.375 8.30103224515915 C 317.25 8.30103224515915, 317.25 8.350278854370117, 323.125 8.350278854370117 C 329 8.350278854370117, 329 8.368874981999397, 334.875 8.368874981999397 C 340.75 8.368874981999397, 340.75 8.383042931556702, 346.625 8.383042931556702 C 352.5 8.383042931556702, 352.5 8.386855982244015, 358.375 8.386855982244015 C 364.25 8.386855982244015, 364.25 8.398084133863449, 370.125 8.398084133863449 C 376 8.398084133863449, 376 8.39593917131424, 381.875 8.39593917131424 C 387.75 8.39593917131424, 387.75 8.378058783710003, 393.625 8.378058783710003 C 399.5 8.378058783710003, 399.5 8.349579989910126, 405.375 8.349579989910126 C 411.25 8.349579989910126, 411.25 8.295751333236694, 417.125 8.295751333236694 C 423 8.295751333236694, 423 8.270223647356033, 428.875 8.270223647356033 C 434.75 8.270223647356033, 434.75 7.881531536579132, 440.625 7.881531536579132 C 446.5 7.881531536579132, 446.5 7.607258200645447, 452.375 7.607258200645447 C 458.25 7.607258200645447, 458.25 7.357463479042053, 464.125 7.357463479042053 C 470 7.357463479042053, 470 7.167266130447388, 475.875 7.167266130447388 C 481.75 7.167266130447388, 481.75 7.319759726524353, 487.625 7.319759726524353 C 493.5 7.319759726524353, 493.5 7.586630702018738, 499.375 7.586630702018738 C 505.25 7.586630702018738, 505.25 7.75740659236908, 511.125 7.75740659236908 C 517 7.75740659236908, 517 7.427375555038452, 522.875 7.427375555038452 C 528.75 7.427375555038452, 528.75 7.752754509449005, 534.625 7.752754509449005 C 540.5 7.752754509449005, 540.5 7.551440358161926, 546.375 7.551440358161926 C 552.25 7.551440358161926, 552.25 7.715538322925568, 558.125 7.715538322925568 C 564 7.715538322925568, 564 7.821878552436829, 569.875 7.821878552436829 C 575.75 7.821878552436829, 575.75 8.016552776098251, 581.625 8.016552776098251 C 587.5 8.016552776098251, 587.5 8.221549153327942, 593.375 8.221549153327942 C 599.25 8.221549153327942, 599.25 8.277665108442307, 605.125 8.277665108442307 C 611 8.277665108442307, 611 8.326589718461037, 616.875 8.326589718461037 C 622.75 8.326589718461037, 622.75 8.372999995946884, 628.625 8.372999995946884 C 634.5 8.372999995946884, 634.5 8.40954089909792, 640.375 8.40954089909792 C 646.25 8.40954089909792, 646.25 8.430805213749409, 652.125 8.430805213749409 C 658 8.430805213749409, 658 8.453607242554426, 663.875 8.453607242554426 C 669.75 8.453607242554426, 669.75 8.458657719194889, 675.625 8.458657719194889 C 681.5 8.458657719194889, 681.5 8.461682673543692, 687.375 8.461682673543692 C 693.25 8.461682673543692, 693.25 8.471557015553117, 699.125 8.471557015553117 C 705 8.471557015553117, 705 8.444137457758188, 710.875 8.444137457758188 C 716.75 8.444137457758188, 716.75 8.45027930662036, 722.625 8.45027930662036 C 728.5 8.45027930662036, 728.5 8.442221261560917, 734.375 8.442221261560917 C 740.25 8.442221261560917, 740.25 8.43882368505001, 746.125 8.43882368505001 C 752 8.43882368505001, 752 8.41293016076088, 757.875 8.41293016076088 C 763.75 8.41293016076088, 763.75 8.348684161901474, 769.625 8.348684161901474 C 775.5 8.348684161901474, 775.5 8.3917266279459, 781.375 8.3917266279459 C 787.25 8.3917266279459, 787.25 8.204268962144852, 793.125 8.204268962144852 C 799 8.204268962144852, 799 8.226114571094513, 804.875 8.226114571094513 C 810.75 8.226114571094513, 810.75 8.14980173110962, 816.625 8.14980173110962 C 822.5 8.14980173110962, 822.5 7.940807104110718, 828.375 7.940807104110718 C 834.25 7.940807104110718, 834.25 7.356802940368652, 840.125 7.356802940368652 C 846 7.356802940368652, 846 6.415345668792725, 851.875 6.415345668792725 C 857.75 6.415345668792725, 857.75 5.007517576217651, 863.625 5.007517576217651 C 869.5 5.007517576217651, 869.5 4.364156246185303, 875.375 4.364156246185303 C 881.25 4.364156246185303, 881.25 4.364156246185303, 887.125 4.364156246185303 V 13.635843753814697 C 881.25 13.635843753814697, 881.25 13.635843753814697, 875.375 13.635843753814697 C 869.5 13.635843753814697, 869.5 12.992482423782349, 863.625 12.992482423782349 C 857.75 12.992482423782349, 857.75 11.584654331207275, 851.875 11.584654331207275 C 846 11.584654331207275, 846 10.643197059631348, 840.125 10.643197059631348 C 834.25 10.643197059631348, 834.25 10.059192895889282, 828.375 10.059192895889282 C 822.5 10.059192895889282, 822.5 9.85019826889038, 816.625 9.85019826889038 C 810.75 9.85019826889038, 810.75 9.773885428905487, 804.875 9.773885428905487 C 799 9.773885428905487, 799 9.795731037855148, 793.125 9.795731037855148 C 787.25 9.795731037855148, 787.25 9.6082733720541, 781.375 9.6082733720541 C 775.5 9.6082733720541, 775.5 9.651315838098526, 769.625 9.651315838098526 C 763.75 9.651315838098526, 763.75 9.58706983923912, 757.875 9.58706983923912 C 752 9.58706983923912, 752 9.56117631494999, 746.125 9.56117631494999 C 740.25 9.56117631494999, 740.25 9.557778738439083, 734.375 9.557778738439083 C 728.5 9.557778738439083, 728.5 9.54972069337964, 722.625 9.54972069337964 C 716.75 9.54972069337964, 716.75 9.555862542241812, 710.875 9.555862542241812 C 705 9.555862542241812, 705 9.528442984446883, 699.125 9.528442984446883 C 693.25 9.528442984446883, 693.25 9.538317326456308, 687.375 9.538317326456308 C 681.5 9.538317326456308, 681.5 9.541342280805111, 675.625 9.541342280805111 C 669.75 9.541342280805111, 669.75 9.546392757445574, 663.875 9.546392757445574 C 658 9.546392757445574, 658 9.569194786250591, 652.125 9.569194786250591 C 646.25 9.569194786250591, 646.25 9.59045910090208, 640.375 9.59045910090208 C 634.5 9.59045910090208, 634.5 9.627000004053116, 628.625 9.627000004053116 C 622.75 9.627000004053116, 622.75 9.673410281538963, 616.875 9.673410281538963 C 611 9.673410281538963, 611 9.722334891557693, 605.125 9.722334891557693 C 599.25 9.722334891557693, 599.25 9.778450846672058, 593.375 9.778450846672058 C 587.5 9.778450846672058, 587.5 9.983447223901749, 581.625 9.983447223901749 C 575.75 9.983447223901749, 575.75 10.178121447563171, 569.875 10.178121447563171 C 564 10.178121447563171, 564 10.284461677074432, 558.125 10.284461677074432 C 552.25 10.284461677074432, 552.25 10.448559641838074, 546.375 10.448559641838074 C 540.5 10.448559641838074, 540.5 10.247245490550995, 534.625 10.247245490550995 C 528.75 10.247245490550995, 528.75 10.572624444961548, 522.875 10.572624444961548 C 517 10.572624444961548, 517 10.24259340763092, 511.125 10.24259340763092 C 505.25 10.24259340763092, 505.25 10.413369297981262, 499.375 10.413369297981262 C 493.5 10.413369297981262, 493.5 10.680240273475647, 487.625 10.680240273475647 C 481.75 10.680240273475647, 481.75 10.832733869552612, 475.875 10.832733869552612 C 470 10.832733869552612, 470 10.642536520957947, 464.125 10.642536520957947 C 458.25 10.642536520957947, 458.25 10.392741799354553, 452.375 10.392741799354553 C 446.5 10.392741799354553, 446.5 10.118468463420868, 440.625 10.118468463420868 C 434.75 10.118468463420868, 434.75 9.729776352643967, 428.875 9.729776352643967 C 423 9.729776352643967, 423 9.704248666763306, 417.125 9.704248666763306 C 411.25 9.704248666763306, 411.25 9.650420010089874, 405.375 9.650420010089874 C 399.5 9.650420010089874, 399.5 9.621941216289997, 393.625 9.621941216289997 C 387.75 9.621941216289997, 387.75 9.60406082868576, 381.875 9.60406082868576 C 376 9.60406082868576, 376 9.601915866136551, 370.125 9.601915866136551 C 364.25 9.601915866136551, 364.25 9.613144017755985, 358.375 9.613144017755985 C 352.5 9.613144017755985, 352.5 9.616957068443298, 346.625 9.616957068443298 C 340.75 9.616957068443298, 340.75 9.631125018000603, 334.875 9.631125018000603 C 329 9.631125018000603, 329 9.649721145629883, 323.125 9.649721145629883 C 317.25 9.649721145629883, 317.25 9.69896775484085, 311.375 9.69896775484085 C 305.5 9.69896775484085, 305.5 9.682963505387306, 299.625 9.682963505387306 C 293.75 9.682963505387306, 293.75 9.724958166480064, 287.875 9.724958166480064 C 282 9.724958166480064, 282 9.832041203975677, 276.125 9.832041203975677 C 270.25 9.832041203975677, 270.25 9.786296963691711, 264.375 9.786296963691711 C 258.5 9.786296963691711, 258.5 9.899232417345047, 252.625 9.899232417345047 C 246.75 9.899232417345047, 246.75 9.81106624007225, 240.875 9.81106624007225 C 235 9.81106624007225, 235 10.058546960353851, 229.125 10.058546960353851 C 223.25 10.058546960353851, 223.25 10.004060745239258, 217.375 10.004060745239258 C 211.5 10.004060745239258, 211.5 10.197847425937653, 205.625 10.197847425937653 C 199.75 10.197847425937653, 199.75 10.049689829349518, 193.875 10.049689829349518 C 188 10.049689829349518, 188 9.94170492887497, 182.125 9.94170492887497 C 176.25 9.94170492887497, 176.25 9.870890229940414, 170.375 9.870890229940414 C 164.5 9.870890229940414, 164.5 9.693897396326065, 158.625 9.693897396326065 C 152.75 9.693897396326065, 152.75 9.650166675448418, 146.875 9.650166675448418 C 141 9.650166675448418, 141 9.6032235622406, 135.125 9.6032235622406 C 129.25 9.6032235622406, 129.25 9.552786443382502, 123.375 9.552786443382502 C 117.5 9.552786443382502, 117.5 9.553270190954208, 111.625 9.553270190954208 C 105.75 9.553270190954208, 105.75 9.551116205751896, 99.875 9.551116205751896 C 94 9.551116205751896, 94 9.55517564713955, 88.125 9.55517564713955 C 82.25 9.55517564713955, 82.25 9.543496042490005, 76.375 9.543496042490005 C 70.5 9.543496042490005, 70.5 9.557500954717398, 64.625 9.557500954717398 C 58.75 9.557500954717398, 58.75 9.556806564331055, 52.875 9.556806564331055 C 47 9.556806564331055, 47 9.554545119404793, 41.125 9.554545119404793 C 35.25 9.554545119404793, 35.25 9.608035296201706, 29.375 9.608035296201706 C 23.5 9.608035296201706, 23.5 9.627184972167015, 17.625 9.627184972167015 C 11.75 9.627184972167015, 11.75 9.642584815621376, 5.875 9.642584815621376 C 0 9.642584815621376, 0 9.601662419736385, -5.875 9.601662419736385 " style="fill:#666" clip-path="url(#clipfe90)"></path></g><g transform="translate(0, 92)" pointer-events="none"><path d="M 0 6.5 H 875.375" style="fill:none;stroke:#000;stroke-width:1px"></path><circle cx="875.375" cy="6.5" fill="black" r="1.9583333333333333"></circle><text style="font-size:8.8125px" x="52.875" y="18" text-anchor="middle">85</text><path d="M 52.875 2 v 4.5" style="fill:none;stroke:#000;stroke-width:1px"></path><text style="font-size:8.8125px" x="111.625" y="18" text-anchor="middle">90</text><path d="M 111.625 2 v 4.5" style="fill:none;stroke:#000;stroke-width:1px"></path><text style="font-size:8.8125px" x="170.375" y="18" text-anchor="middle">95</text><path d="M 170.375 2 v 4.5" style="fill:none;stroke:#000;stroke-width:1px"></path><text style="font-size:8.8125px" x="229.125" y="18" text-anchor="middle">100</text><path d="M 229.125 2 v 4.5" style="fill:none;stroke:#000;stroke-width:1px"></path><text style="font-size:8.8125px" x="287.875" y="18" text-anchor="middle">105</text><path d="M 287.875 2 v 4.5" style="fill:none;stroke:#000;stroke-width:1px"></path><text style="font-size:8.8125px" x="346.625" y="18" text-anchor="middle">110</text><path d="M 346.625 2 v 4.5" style="fill:none;stroke:#000;stroke-width:1px"></path><text style="font-size:8.8125px" x="405.375" y="18" text-anchor="middle">115</text><path d="M 405.375 2 v 4.5" style="fill:none;stroke:#000;stroke-width:1px"></path><text style="font-size:8.8125px" x="464.125" y="18" text-anchor="middle">120</text><path d="M 464.125 2 v 4.5" style="fill:none;stroke:#000;stroke-width:1px"></path><text style="font-size:8.8125px" x="522.875" y="18" text-anchor="middle">125</text><path d="M 522.875 2 v 4.5" style="fill:none;stroke:#000;stroke-width:1px"></path><text style="font-size:8.8125px" x="581.625" y="18" text-anchor="middle">130</text><path d="M 581.625 2 v 4.5" style="fill:none;stroke:#000;stroke-width:1px"></path><text style="font-size:8.8125px" x="640.375" y="18" text-anchor="middle">135</text><path d="M 640.375 2 v 4.5" style="fill:none;stroke:#000;stroke-width:1px"></path><text style="font-size:8.8125px" x="699.125" y="18" text-anchor="middle">140</text><path d="M 699.125 2 v 4.5" style="fill:none;stroke:#000;stroke-width:1px"></path><text style="font-size:8.8125px" x="757.875" y="18" text-anchor="middle">145</text><path d="M 757.875 2 v 4.5" style="fill:none;stroke:#000;stroke-width:1px"></path><text style="font-size:8.8125px" x="816.625" y="18" text-anchor="middle">150</text><path d="M 816.625 2 v 4.5" style="fill:none;stroke:#000;stroke-width:1px"></path><text style="font-size:8.8125px" x="875.375" y="18" text-anchor="middle">155</text><path d="M 875.375 2 v 4.5" style="fill:none;stroke:#000;stroke-width:1px"></path></g></g></svg>